<?xml version="1.0" encoding="utf-8"?>
<!-- Generator: Adobe Illustrator 27.5.0, SVG Export Plug-In . SVG Version: 6.00 Build 0)  -->
<svg version="1.1" xmlns="http://www.w3.org/2000/svg" xmlns:xlink="http://www.w3.org/1999/xlink" x="0px" y="0px"
	 viewBox="0 0 500 500" style="enable-background:new 0 0 500 500;" xml:space="preserve">
<g id="BACKGROUND">
	<g>
		<g>
			<rect y="417.528" style="fill:#EDEDED;" width="500" height="82.472"/>
			<path style="fill:none;stroke:#262626;stroke-linecap:round;stroke-linejoin:round;stroke-miterlimit:10;" d="M0,417.528
				c169-0.098,330.806-0.098,500-0.046"/>
		</g>
		<ellipse style="fill:#EDEDED;" cx="312.774" cy="458.544" rx="137.12" ry="11.934"/>
	</g>
</g>
<g id="OBJECTS">
	<g>
		<g>
			<g>
				<rect x="33.924" y="159.963" style="fill:#FF98E1;" width="197.015" height="17.518"/>
				
					<line style="fill:none;stroke:#1F1927;stroke-linecap:round;stroke-linejoin:round;stroke-miterlimit:10;" x1="33.924" y1="172.928" x2="230.938" y2="173.212"/>
				
					<line style="fill:none;stroke:#1F1927;stroke-linecap:round;stroke-linejoin:round;stroke-miterlimit:10;" x1="230.938" y1="168.722" x2="33.924" y2="168.722"/>
			</g>
			
				<rect x="33.146" y="409.38" transform="matrix(-1 -1.224647e-16 1.224647e-16 -1 263.3075 835.8584)" style="fill:#FF98E1;" width="197.015" height="17.097"/>
			<g>
				
					<line style="fill:none;stroke:#1F1927;stroke-linecap:round;stroke-linejoin:round;stroke-miterlimit:10;" x1="33.924" y1="419.361" x2="230.938" y2="419.638"/>
				
					<line style="fill:none;stroke:#1F1927;stroke-linecap:round;stroke-linejoin:round;stroke-miterlimit:10;" x1="230.938" y1="415.256" x2="33.924" y2="415.256"/>
			</g>
			<g>
				<path style="fill:#FFFFFF;" d="M218.726,177.774c0,63.882-38.984,115.669-87.072,115.669
					c-48.089,0-87.072-51.787-87.072-115.669H218.726z"/>
				<path style="fill:#FFDF58;" d="M182.001,224.288c-2.662,2.831-5.159,5.832-8.055,8.434c-2.51,2.255-5.421,4.301-8.795,4.947
					c-7.614,1.457-13.958-4.032-18.511-9.424c-5.227-6.192-9.736-13.036-16.144-18.137c-3.425-2.726-7.501-4.935-11.955-5.118
					c-4.644-0.192-9.289,0.8-13.643,2.36c-4.429,1.586-8.65,3.799-12.504,6.495c-3.168,2.216-5.803,4.798-8.23,7.794
					c-4.081,5.039-7.788,11.243-13.827,14.168c-4.356,2.11-9.204,1.778-13.817,0.446c15.123,34.215,43.107,57.19,75.134,57.19
					c39.787,0,73.34-35.45,83.739-83.87C202.91,210.207,190.672,215.069,182.001,224.288z"/>
				<path style="fill:none;stroke:#1F1927;stroke-linecap:round;stroke-linejoin:round;stroke-miterlimit:10;" d="M218.726,177.774
					c0,63.882-38.984,115.669-87.072,115.669c-48.089,0-87.072-51.787-87.072-115.669H218.726z"/>
				<path style="fill:none;stroke:#FFFFFF;stroke-linecap:round;stroke-linejoin:round;stroke-miterlimit:10;" d="M94.208,217.872
					c0,0,16.146-13.72,29.24-8.79c16.866,6.351,21.932,34.802,41.335,32.244"/>
			</g>
			<g>
				<path style="fill:#FFFFFF;" d="M44.582,409.111c0-63.882,38.984-115.669,87.072-115.669c48.089,0,87.072,51.787,87.072,115.669
					H44.582z"/>
				<path style="fill:#FFDF58;" d="M216.165,381.184c-6.135-0.471-12.269-0.958-18.399-1.492c-5.47-0.476-10.939-0.903-16.414-1.308
					c-5.522-0.409-11.045-0.904-16.515-1.777c-5.383-0.859-10.77-2.063-15.819-4.158c-4.311-1.79-8.641-4.318-11.27-8.289
					c-2.85-4.305-4.004-9.594-4.7-14.635c-0.72-5.212-0.866-10.476-1.039-15.728c-0.108-3.27-0.328-6.534-0.453-9.804
					c-0.153-4.006-0.248-8.013-0.363-12.02c-0.176-6.172-0.408-12.347-0.954-18.497c-1.055,0.024-2.104,0.075-3.15,0.144
					c0.031,0.271,0.069,0.541,0.097,0.812c0.744,7.163,0.604,14.393,0.245,21.575c-0.344,6.879-0.799,13.759-1.531,20.608
					c-0.72,6.739-1.726,13.476-3.505,20.024c-1.594,5.864-3.841,11.645-7.101,16.795c-2.651,4.186-6.004,7.882-9.949,10.883
					c-3.927,2.987-8.355,5.243-12.943,7.026c-5.537,2.151-11.298,3.623-17.082,4.934c-7.461,1.691-14.98,3.128-22.532,4.345
					c-2.672,0.431-5.349,0.825-8.029,1.203c-0.115,2.41-0.179,4.839-0.179,7.287h174.144
					C218.726,399.481,217.834,390.129,216.165,381.184z"/>
				<path style="fill:none;stroke:#1F1927;stroke-linecap:round;stroke-linejoin:round;stroke-miterlimit:10;" d="M44.582,409.111
					c0-63.882,38.984-115.669,87.072-115.669c48.089,0,87.072,51.787,87.072,115.669H44.582z"/>
				<path style="fill:none;stroke:#FFFFFF;stroke-linecap:round;stroke-linejoin:round;stroke-miterlimit:10;" d="M124.18,357.375
					c0,0-4.915,38.668-52.595,41.453"/>
				<path style="fill:none;stroke:#FFFFFF;stroke-linecap:round;stroke-linejoin:round;stroke-miterlimit:10;" d="M130.641,343.697
					c0,0-2.333,20.299,12.366,28.932c14.7,8.633,66.031,11.433,66.031,11.433"/>
			</g>
		</g>
		<g>
			<g>
				<circle style="fill:#F66666;" cx="89.817" cy="134.997" r="60.067"/>
				<g>
					<path style="fill:none;stroke:#1F1927;stroke-linecap:round;stroke-linejoin:round;stroke-miterlimit:10;" d="M148.102,120.416
						c1.164,4.668,1.782,9.552,1.782,14.581c0,33.174-26.893,60.067-60.067,60.067c-13.09,0-25.202-4.187-35.07-11.295"/>
					
						<circle style="fill:none;stroke:#1F1927;stroke-linecap:round;stroke-linejoin:round;stroke-miterlimit:10;" cx="89.817" cy="134.997" r="39.951"/>
					
						<ellipse transform="matrix(0.2284 -0.9736 0.9736 0.2284 -62.1256 191.6082)" style="fill:none;stroke:#1F1927;stroke-linecap:round;stroke-linejoin:round;stroke-miterlimit:10;" cx="89.817" cy="134.997" rx="13.929" ry="13.929"/>
				</g>
			</g>
			<g>
				<path style="fill:#CE3A3A;" d="M92.629,134.997c0,1.553-1.259,2.812-2.812,2.812c-1.553,0-2.812-1.259-2.812-2.812
					c0-1.553,1.259-2.812,2.812-2.812C91.37,132.185,92.629,133.444,92.629,134.997z"/>
				<g>
					<polygon style="fill:#833FF4;" points="154.261,78.815 145.958,78.815 145.958,70.513 136.691,79.78 136.691,88.056 
						136.665,88.082 136.691,88.082 136.691,88.109 136.717,88.082 144.993,88.082 					"/>
					
						<line style="fill:none;stroke:#1F1927;stroke-linecap:round;stroke-linejoin:round;stroke-miterlimit:10;" x1="148.623" y1="76.15" x2="89.557" y2="135.217"/>
				</g>
			</g>
		</g>
		<g>
			<g>
				<g>
					<path style="fill:#833FF4;" d="M412.558,456.039H209.76c-10.28,0-18.614-8.334-18.614-18.614V54.362
						c0-10.28,8.334-18.614,18.614-18.614h202.798c10.28,0,18.614,8.334,18.614,18.614v383.063
						C431.172,447.705,422.838,456.039,412.558,456.039z"/>
					
						<ellipse style="fill:none;stroke:#FFFFFF;stroke-linecap:round;stroke-linejoin:round;stroke-miterlimit:10;" cx="313.593" cy="431.151" rx="23.33" ry="15.458"/>
				</g>
				<g>
					<path style="fill:#FFFFFF;" d="M421.316,407.163V54.687c0-5.141-4.168-9.309-9.309-9.309H210.311
						c-5.141,0-9.309,4.168-9.309,9.309v352.476H421.316z"/>
					<g>
						<polyline style="fill:#FFFFFF;stroke:#1F1927;stroke-linecap:round;stroke-linejoin:round;stroke-miterlimit:10;" points="
							421.316,192.72 421.316,407.163 230.161,407.163 						"/>
						<path style="fill:#FFFFFF;stroke:#1F1927;stroke-linecap:round;stroke-linejoin:round;stroke-miterlimit:10;" d="
							M307.558,45.378H206.779c-3.19,0-5.777,2.586-5.777,5.777v289.649"/>
					</g>
				</g>
			</g>
			<g>
				<g>
					<polygon style="fill:#FFDF58;" points="308.547,74.134 313.07,83.298 323.183,84.767 315.865,91.9 317.593,101.972 
						308.547,97.217 299.502,101.972 301.23,91.9 293.912,84.767 304.025,83.298 					"/>
					<polygon style="fill:#FFDF58;" points="350.199,74.134 354.722,83.298 364.835,84.767 357.517,91.9 359.244,101.972 
						350.199,97.217 341.154,101.972 342.881,91.9 335.563,84.767 345.676,83.298 					"/>
					<polygon style="fill:#FFDF58;" points="391.85,74.134 396.373,83.298 406.486,84.767 399.168,91.9 400.896,101.972 
						391.85,97.217 382.805,101.972 384.533,91.9 377.215,84.767 387.328,83.298 					"/>
					<g>
						<g>
							<defs>
								<circle id="SVGID_3_" cx="250.589" cy="86.223" r="30.796"/>
							</defs>
							<clipPath id="SVGID_00000074424833471528456650000006501272166867639692_">
								<use xlink:href="#SVGID_3_"  style="overflow:visible;"/>
							</clipPath>
							<polygon style="clip-path:url(#SVGID_00000074424833471528456650000006501272166867639692_);fill:#FFDF58;" points="
								266.997,60.337 277.603,81.827 301.319,85.273 284.158,102.001 288.209,125.621 266.997,114.469 245.785,125.621 
								249.836,102.001 232.675,85.273 256.391,81.827 							"/>
						</g>
						
							<ellipse transform="matrix(0.9999 -0.0145 0.0145 0.9999 -1.2242 3.6386)" style="fill:none;stroke:#1F1927;stroke-width:7;stroke-linecap:round;stroke-linejoin:round;stroke-miterlimit:10;" cx="250.611" cy="86.341" rx="30.796" ry="30.797"/>
						
							<line style="fill:none;stroke:#1F1927;stroke-width:7;stroke-linecap:round;stroke-linejoin:round;stroke-miterlimit:10;" x1="221.632" y1="96.763" x2="169.771" y2="115.415"/>
					</g>
				</g>
				<g>
					<rect x="169.771" y="133.251" style="fill:#00DD9E;" width="100.895" height="134.081"/>
					<g>
						<g>
							
								<line style="fill:none;stroke:#1F1927;stroke-linecap:round;stroke-linejoin:round;stroke-miterlimit:10;" x1="199.579" y1="164.869" x2="250.589" y2="164.869"/>
							
								<line style="fill:none;stroke:#1F1927;stroke-linecap:round;stroke-linejoin:round;stroke-miterlimit:10;" x1="207.081" y1="171.871" x2="260.597" y2="171.871"/>
						</g>
						<g>
							<rect x="177.323" y="160.617" style="fill:#FFFFFF;" width="16.36" height="16.36"/>
							<polyline style="fill:none;stroke:#1F1927;stroke-linecap:round;stroke-linejoin:round;stroke-miterlimit:10;" points="
								180.577,168.798 184.557,172.479 196.03,160.187 							"/>
						</g>
						<g>
							
								<line style="fill:none;stroke:#1F1927;stroke-linecap:round;stroke-linejoin:round;stroke-miterlimit:10;" x1="199.579" y1="192.431" x2="250.589" y2="192.431"/>
							
								<line style="fill:none;stroke:#1F1927;stroke-linecap:round;stroke-linejoin:round;stroke-miterlimit:10;" x1="207.081" y1="199.433" x2="260.597" y2="199.433"/>
						</g>
						<g>
							<rect x="177.323" y="188.18" style="fill:#FFFFFF;" width="16.36" height="16.36"/>
							<polyline style="fill:none;stroke:#1F1927;stroke-linecap:round;stroke-linejoin:round;stroke-miterlimit:10;" points="
								180.577,196.36 184.557,200.042 196.03,187.749 							"/>
						</g>
						<g>
							
								<line style="fill:none;stroke:#1F1927;stroke-linecap:round;stroke-linejoin:round;stroke-miterlimit:10;" x1="199.579" y1="219.993" x2="250.589" y2="219.993"/>
							
								<line style="fill:none;stroke:#1F1927;stroke-linecap:round;stroke-linejoin:round;stroke-miterlimit:10;" x1="207.081" y1="226.995" x2="260.597" y2="226.995"/>
						</g>
						<g>
							<rect x="177.323" y="215.742" style="fill:#FFFFFF;" width="16.36" height="16.36"/>
							<polyline style="fill:none;stroke:#1F1927;stroke-linecap:round;stroke-linejoin:round;stroke-miterlimit:10;" points="
								180.577,223.922 184.557,227.604 196.03,215.312 							"/>
						</g>
						<g>
							
								<line style="fill:none;stroke:#1F1927;stroke-linecap:round;stroke-linejoin:round;stroke-miterlimit:10;" x1="199.579" y1="247.556" x2="250.589" y2="247.556"/>
							
								<line style="fill:none;stroke:#1F1927;stroke-linecap:round;stroke-linejoin:round;stroke-miterlimit:10;" x1="207.081" y1="254.558" x2="260.597" y2="254.558"/>
						</g>
						<g>
							<rect x="177.323" y="243.304" style="fill:#FFFFFF;" width="16.36" height="16.36"/>
							<polyline style="fill:none;stroke:#1F1927;stroke-linecap:round;stroke-linejoin:round;stroke-miterlimit:10;" points="
								180.577,251.484 184.557,255.166 196.03,242.874 							"/>
						</g>
						<g>
							<polyline style="fill:none;stroke:#1F1927;stroke-linecap:round;stroke-linejoin:round;stroke-miterlimit:10;" points="
								169.771,133.251 270.667,133.251 270.667,218.811 							"/>
							
								<line style="fill:none;stroke:#1F1927;stroke-linecap:round;stroke-linejoin:round;stroke-miterlimit:10;" x1="169.771" y1="146.315" x2="270.667" y2="146.315"/>
							<polyline style="fill:none;stroke:#1F1927;stroke-linecap:round;stroke-linejoin:round;stroke-miterlimit:10;" points="
								169.771,158.251 169.771,267.332 263.534,267.332 							"/>
							<path style="fill:#1F1927;" d="M179.373,139.753c0,1.132-0.918,2.05-2.05,2.05c-1.132,0-2.05-0.918-2.05-2.05
								c0-1.132,0.918-2.05,2.05-2.05C178.455,137.703,179.373,138.621,179.373,139.753z"/>
							<path style="fill:#1F1927;" d="M188.836,139.753c0,1.132-0.918,2.05-2.05,2.05c-1.132,0-2.05-0.918-2.05-2.05
								c0-1.132,0.918-2.05,2.05-2.05C187.918,137.703,188.836,138.621,188.836,139.753z"/>
							<circle style="fill:#1F1927;" cx="196.249" cy="139.753" r="2.05"/>
						</g>
					</g>
				</g>
				<g>
					<g>
						
							<rect x="300.064" y="119.713" style="fill:#FFFFFF;stroke:#1F1927;stroke-linecap:round;stroke-linejoin:round;stroke-miterlimit:10;" width="166.464" height="96.531"/>
						<polyline style="fill:#FFFFFF;stroke:#1F1927;stroke-linecap:round;stroke-linejoin:round;stroke-miterlimit:10;" points="
							312.533,213.065 320.491,226.271 327.387,213.065 						"/>
					</g>
					<g>
						<rect x="315.842" y="141.442" style="fill:#FF98E1;" width="21.544" height="21.544"/>
						<rect x="353.63" y="141.442" style="fill:#FF98E1;" width="21.544" height="21.544"/>
						<rect x="391.418" y="141.442" style="fill:#FF98E1;" width="21.544" height="21.544"/>
						<rect x="429.206" y="141.442" style="fill:#FF98E1;" width="21.544" height="21.544"/>
						<rect x="315.842" y="176.978" style="fill:#FF98E1;" width="21.544" height="21.544"/>
						<rect x="353.63" y="176.978" style="fill:#FF98E1;" width="21.544" height="21.544"/>
						<rect x="391.418" y="176.978" style="fill:#FF98E1;" width="21.544" height="21.544"/>
						<rect x="429.206" y="176.978" style="fill:#FF98E1;" width="21.544" height="21.544"/>
					</g>
					<g>
						<g>
							<g>
								<g>
									<g>
										<g>
											<g>
												<g>
													<path style="fill:none;" d="M250.547,131.218l0.338-0.9l0.431-1.038c0.297-0.698,0.628-1.398,0.966-2.094
														c0.683-1.391,1.439-2.757,2.251-4.083l-9.599-5.866c-0.991,1.619-1.908,3.277-2.748,4.986
														c-0.417,0.858-0.824,1.719-1.203,2.61c-0.194,0.441-0.377,0.895-0.561,1.354l-0.272,0.707l-0.292,0.821
														L250.547,131.218z"/>
												</g>
												<path style="fill-rule:evenodd;clip-rule:evenodd;fill:#222221;" d="M248.035,122.304l0.986,0.541
													c0.3-0.557,0.624-1.101,0.938-1.65l-0.968-0.574C248.671,121.181,248.341,121.736,248.035,122.304z"/>
												<path style="fill-rule:evenodd;clip-rule:evenodd;fill:#222221;" d="M246.457,125.398l1.018,0.478
													c0.273-0.57,0.547-1.14,0.84-1.701l-1.001-0.514C247.016,124.234,246.736,124.816,246.457,125.398z"/>
												<path style="fill-rule:evenodd;clip-rule:evenodd;fill:#222221;" d="M245.096,128.588l1.052,0.398
													c0.225-0.585,0.46-1.17,0.714-1.748l-1.032-0.447C245.57,127.382,245.329,127.982,245.096,128.588z"/>
											</g>
										</g>
										<g>
											<g>
												<g>
													<path style="fill:none;" d="M254.532,123.103c1.623-2.654,3.476-5.157,5.549-7.405l-8.287-7.607
														c-2.607,2.831-4.881,5.91-6.86,9.146L254.532,123.103z"/>
												</g>
												<polygon style="fill-rule:evenodd;clip-rule:evenodd;fill:#222221;" points="253.863,113.668 254.731,114.383 
													255.964,112.943 255.123,112.196 												"/>
												<polygon style="fill-rule:evenodd;clip-rule:evenodd;fill:#222221;" points="251.741,116.418 252.654,117.076 
													253.791,115.558 252.902,114.868 												"/>
												<path style="fill-rule:evenodd;clip-rule:evenodd;fill:#222221;" d="M249.806,119.289l0.952,0.6
													c0.348-0.528,0.683-1.066,1.042-1.586l-0.931-0.632C250.502,118.202,250.161,118.75,249.806,119.289z"/>
											</g>
										</g>
										<g>
											<g>
												<g>
													<path style="fill:none;" d="M260.081,115.699c2.077-2.241,4.338-4.281,6.819-5.945l-6.338-9.293
														c-3.254,2.191-6.157,4.81-8.768,7.632L260.081,115.699z"/>
												</g>
												<polygon style="fill-rule:evenodd;clip-rule:evenodd;fill:#222221;" points="261.311,106.371 262.002,107.258 
													263.522,106.135 262.871,105.217 												"/>
												<path style="fill-rule:evenodd;clip-rule:evenodd;fill:#222221;" d="M258.658,108.622l0.758,0.831
													c0.474-0.416,0.926-0.858,1.424-1.245l-0.722-0.863C259.608,107.743,259.144,108.195,258.658,108.622z"/>
												<path style="fill-rule:evenodd;clip-rule:evenodd;fill:#222221;" d="M256.184,111.048l0.816,0.774
													c0.423-0.47,0.882-0.903,1.331-1.347l-0.785-0.806C257.087,110.123,256.617,110.568,256.184,111.048z"/>
											</g>
										</g>
										<g>
											<g>
												<g>
													<path style="fill:none;" d="M266.9,109.753c2.473-1.677,5.126-3.034,7.918-4.022l-3.756-10.603
														c-3.719,1.315-7.261,3.13-10.501,5.332L266.9,109.753z"/>
												</g>
												<path style="fill-rule:evenodd;clip-rule:evenodd;fill:#222221;" d="M270.282,101.047l0.447,1.032
													c0.576-0.254,1.151-0.508,1.749-0.708l-0.396-1.053C271.467,100.525,270.874,100.786,270.282,101.047z"/>
												<polygon style="fill-rule:evenodd;clip-rule:evenodd;fill:#222221;" points="267.143,102.555 267.678,103.545 
													269.361,102.691 268.875,101.676 												"/>
												<path style="fill-rule:evenodd;clip-rule:evenodd;fill:#222221;" d="M264.169,104.342l0.616,0.941
													c0.521-0.354,1.053-0.691,1.604-0.997l-0.571-0.969C265.251,103.632,264.704,103.979,264.169,104.342z"/>
											</g>
										</g>
										<g>
											<g>
												<g>
													<path style="fill:none;" d="M274.818,105.731c2.791-0.99,5.72-1.609,8.72-1.871l-0.999-11.204
														c-3.877,0.339-7.759,1.152-11.477,2.472L274.818,105.731z"/>
												</g>
												<path style="fill-rule:evenodd;clip-rule:evenodd;fill:#222221;" d="M280.311,98.184l0.169,1.112
													c0.621-0.108,1.244-0.199,1.874-0.243l-0.119-1.119C281.589,97.98,280.949,98.073,280.311,98.184z"/>
												<polygon style="fill-rule:evenodd;clip-rule:evenodd;fill:#222221;" points="276.894,98.847 277.156,99.941 
													278.999,99.532 278.79,98.427 												"/>
												<polygon style="fill-rule:evenodd;clip-rule:evenodd;fill:#222221;" points="273.553,99.784 273.907,100.851 
													275.716,100.312 275.414,99.229 												"/>
											</g>
										</g>
										<g>
											<g>
												<g>
													<path style="fill:none;" d="M283.538,103.86c3.03-0.258,6.028-0.202,8.872,0.283l1.902-11.087
														c-3.967-0.675-7.928-0.731-11.773-0.401L283.538,103.86z"/>
												</g>
												<polygon style="fill-rule:evenodd;clip-rule:evenodd;fill:#222221;" points="290.735,97.852 290.628,98.972 
													292.501,99.183 292.667,98.07 												"/>
												<polygon style="fill-rule:evenodd;clip-rule:evenodd;fill:#222221;" points="287.257,97.668 287.251,98.793 
													289.137,98.863 289.198,97.74 												"/>
												<path style="fill-rule:evenodd;clip-rule:evenodd;fill:#222221;" d="M283.792,97.787l0.08,1.122
													c0.627-0.065,1.26-0.051,1.89-0.081l-0.033-1.125C285.084,97.734,284.436,97.721,283.792,97.787z"/>
											</g>
										</g>
										<g>
											<g>
												<g>
													<path style="fill:none;" d="M292.41,104.143c2.855,0.483,5.582,1.398,8.115,2.729l5.222-9.963
														c-3.578-1.884-7.482-3.185-11.434-3.853L292.41,104.143z"/>
												</g>
												<polygon style="fill-rule:evenodd;clip-rule:evenodd;fill:#222221;" points="300.863,100.373 300.424,101.409 
													302.139,102.18 302.638,101.172 												"/>
												<path style="fill-rule:evenodd;clip-rule:evenodd;fill:#222221;" d="M297.585,99.18l-0.327,1.076
													c0.606,0.16,1.184,0.409,1.778,0.608l0.39-1.055C298.811,99.603,298.212,99.347,297.585,99.18z"/>
												<path style="fill-rule:evenodd;clip-rule:evenodd;fill:#222221;" d="M294.208,98.357l-0.215,1.104
													c0.616,0.119,1.236,0.22,1.836,0.406l0.278-1.09C295.485,98.585,294.845,98.48,294.208,98.357z"/>
											</g>
										</g>
										<g>
											<g>
												<g>
													<path style="fill:none;" d="M300.525,106.872c2.534,1.329,4.876,3.071,6.994,5.136l7.879-8.029
														c-2.821-2.758-6.066-5.193-9.651-7.071L300.525,106.872z"/>
												</g>
												<path style="fill-rule:evenodd;clip-rule:evenodd;fill:#222221;" d="M309.728,105.883l-0.729,0.857
													c0.493,0.39,0.945,0.828,1.403,1.259l0.772-0.818C310.702,106.736,310.236,106.286,309.728,105.883z"/>
												<polygon style="fill-rule:evenodd;clip-rule:evenodd;fill:#222221;" points="306.973,103.748 306.329,104.671 
													307.85,105.782 308.543,104.896 												"/>
												<path style="fill-rule:evenodd;clip-rule:evenodd;fill:#222221;" d="M304.02,101.914l-0.546,0.984
													c0.562,0.28,1.086,0.626,1.616,0.961l0.602-0.951C305.143,102.562,304.601,102.205,304.02,101.914z"/>
											</g>
										</g>
										<g>
											<g>
												<g>
													<path style="fill:none;" d="M307.518,112.009c2.122,2.062,3.983,4.481,5.64,7.072l9.502-6.022
														c-2.059-3.223-4.432-6.32-7.263-9.079L307.518,112.009z"/>
												</g>
												<path style="fill-rule:evenodd;clip-rule:evenodd;fill:#222221;" d="M316.734,113.609l-0.917,0.652
													c0.362,0.517,0.736,1.026,1.069,1.564l0.941-0.616C317.487,114.659,317.105,114.138,316.734,113.609z"/>
												<path style="fill-rule:evenodd;clip-rule:evenodd;fill:#222221;" d="M314.617,110.85l-0.865,0.719
													c0.419,0.47,0.781,0.99,1.175,1.482l0.895-0.681C315.419,111.864,315.048,111.333,314.617,110.85z"/>
												<path style="fill-rule:evenodd;clip-rule:evenodd;fill:#222221;" d="M312.294,108.273l-0.804,0.787
													c0.43,0.46,0.875,0.905,1.293,1.376l0.84-0.749C313.194,109.204,312.737,108.746,312.294,108.273z"/>
											</g>
										</g>
										<g>
											<g>
												<g>
													<path style="fill:none;" d="M313.158,119.081c1.662,2.592,3.059,5.414,4.263,8.324l10.413-4.256
														c-1.434-3.469-3.112-6.863-5.174-10.09L313.158,119.081z"/>
												</g>
												<path style="fill-rule:evenodd;clip-rule:evenodd;fill:#222221;" d="M321.918,122.646l-1.022,0.47
													c0.274,0.571,0.516,1.157,0.768,1.739l1.036-0.438C322.443,123.824,322.196,123.228,321.918,122.646z"/>
												<path style="fill-rule:evenodd;clip-rule:evenodd;fill:#222221;" d="M320.381,119.533l-0.994,0.527
													c0.306,0.554,0.574,1.129,0.863,1.692l1.01-0.495C320.967,120.684,320.694,120.098,320.381,119.533z"/>
												<polygon style="fill-rule:evenodd;clip-rule:evenodd;fill:#222221;" points="318.669,116.525 317.71,117.113 
													318.673,118.747 319.653,118.193 												"/>
											</g>
										</g>
										<g>
											<g>
												<g>
													<path style="fill:none;" d="M317.421,127.405c0.601,1.457,1.133,2.948,1.614,4.446c0.242,0.749,0.46,1.502,0.667,2.25
														l0.286,1.112l0.225,0.987l11.049-2.108c-0.128-0.633-0.225-1.049-0.345-1.539l-0.359-1.396
														c-0.253-0.916-0.516-1.822-0.804-2.716c-0.574-1.79-1.205-3.554-1.92-5.29L317.421,127.405z"/>
												</g>
												<path style="fill-rule:evenodd;clip-rule:evenodd;fill:#222221;" d="M325.487,132.428l-1.085,0.296
													c0.167,0.61,0.324,1.223,0.465,1.835l1.096-0.252C325.818,133.677,325.658,133.051,325.487,132.428z"/>
												<path style="fill-rule:evenodd;clip-rule:evenodd;fill:#222221;" d="M324.477,129.108l-1.067,0.357
													c0.195,0.603,0.398,1.203,0.575,1.812l1.077-0.325C324.882,130.333,324.675,129.721,324.477,129.108z"/>
												<path style="fill-rule:evenodd;clip-rule:evenodd;fill:#222221;" d="M323.289,125.86l-1.047,0.413
													c0.242,0.586,0.451,1.185,0.674,1.778l1.058-0.382C323.748,127.065,323.535,126.456,323.289,125.86z"/>
											</g>
										</g>
									</g>
								</g>
							</g>
							<polyline style="fill:none;stroke:#1F1927;stroke-linecap:round;stroke-linejoin:round;stroke-miterlimit:10;" points="
								321.196,133.251 325.738,137.102 328.394,131.575 							"/>
						</g>
						<g>
							<path style="fill:#1F1927;" d="M312.259,145.495c-0.823,2.368-1.344,4.872-1.132,7.342c0.178,2.448,1.136,4.868,2.856,6.566
								c1.698,1.709,4.165,2.508,6.553,2.284c2.397-0.189,4.627-1.438,6.238-3.217c1.622-1.76,2.758-4.066,2.88-6.451
								c0.056-1.188-0.163-2.38-0.717-3.418c-0.555-1.031-1.388-1.933-2.431-2.454c-1.035-0.536-2.275-0.615-3.431-0.319
								c-1.162,0.291-2.247,0.915-3.159,1.724c-1.856,1.637-2.952,3.979-4.054,6.221c0.9-2.33,1.886-4.726,3.72-6.579
								c0.929-0.897,2.061-1.606,3.329-1.975c1.258-0.374,2.693-0.348,3.926,0.234c2.509,1.13,3.872,3.972,3.727,6.603
								c-0.111,2.661-1.309,5.15-3.055,7.091c-1.772,1.916-4.251,3.269-6.9,3.446c-2.607,0.211-5.391-0.679-7.175-2.655
								c-1.805-1.923-2.709-4.521-2.794-7.073C310.589,150.298,311.227,147.784,312.259,145.495z"/>
						</g>
					</g>
				</g>
				<g>
					
						<rect x="204.961" y="238.839" style="fill:#FFFFFF;stroke:#1F1927;stroke-linecap:round;stroke-linejoin:round;stroke-miterlimit:10;" width="122.673" height="98.554"/>
					<g>
						<path style="fill:#1F1927;" d="M223.758,250.013L223.758,250.013c-2.488,0-4.523-2.035-4.523-4.523v-13.343
							c0-2.488,2.036-4.523,4.523-4.523l0,0c2.488,0,4.523,2.035,4.523,4.523v13.343
							C228.281,247.978,226.246,250.013,223.758,250.013z"/>
						<path style="fill:#1F1927;" d="M252.933,250.013L252.933,250.013c-2.488,0-4.523-2.035-4.523-4.523v-13.343
							c0-2.488,2.035-4.523,4.523-4.523l0,0c2.488,0,4.523,2.035,4.523,4.523v13.343
							C257.456,247.978,255.421,250.013,252.933,250.013z"/>
						<path style="fill:#1F1927;" d="M282.107,250.013L282.107,250.013c-2.488,0-4.523-2.035-4.523-4.523v-13.343
							c0-2.488,2.035-4.523,4.523-4.523l0,0c2.488,0,4.523,2.035,4.523,4.523v13.343
							C286.631,247.978,284.595,250.013,282.107,250.013z"/>
						<path style="fill:#1F1927;" d="M311.282,250.013L311.282,250.013c-2.488,0-4.523-2.035-4.523-4.523v-13.343
							c0-2.488,2.035-4.523,4.523-4.523h0c2.488,0,4.523,2.035,4.523,4.523v13.343C315.805,247.978,313.77,250.013,311.282,250.013z
							"/>
					</g>
					
						<line style="fill:#FFFFFF;stroke:#1F1927;stroke-linecap:round;stroke-linejoin:round;stroke-miterlimit:10;" x1="208.916" y1="262.632" x2="322.95" y2="262.632"/>
					
						<line style="fill:#FFFFFF;stroke:#1F1927;stroke-linecap:round;stroke-linejoin:round;stroke-miterlimit:10;" x1="208.916" y1="281.287" x2="322.95" y2="281.287"/>
					
						<line style="fill:#FFFFFF;stroke:#1F1927;stroke-linecap:round;stroke-linejoin:round;stroke-miterlimit:10;" x1="208.916" y1="299.942" x2="322.95" y2="299.942"/>
					
						<line style="fill:#FFFFFF;stroke:#1F1927;stroke-linecap:round;stroke-linejoin:round;stroke-miterlimit:10;" x1="208.916" y1="318.597" x2="322.95" y2="318.597"/>
				</g>
				<g>
					
						<polyline style="fill:none;stroke:#F66666;stroke-width:6;stroke-linecap:round;stroke-linejoin:round;stroke-miterlimit:10;" points="
						207.081,401.924 270.667,294.703 343.789,403.872 449.894,249.318 					"/>
					
						<polyline style="fill:none;stroke:#F66666;stroke-width:6;stroke-linecap:round;stroke-linejoin:round;stroke-miterlimit:10;" points="
						439.122,244.499 454.714,244.499 454.714,260.012 					"/>
				</g>
				<g>
					<g>
						<path style="fill:#AAAAAA;" d="M393.841,267.332h-30.323c-5.438,0-9.888-4.45-9.888-9.888l0,0c0-5.438,4.45-9.888,9.888-9.888
							h30.323c5.439,0,9.888,4.45,9.888,9.888l0,0C403.73,262.882,399.28,267.332,393.841,267.332z"/>
						
							<ellipse transform="matrix(0.2524 -0.9676 0.9676 0.2524 45.923 574.325)" style="fill:#833FF4;" cx="394.632" cy="257.444" rx="9.888" ry="9.888"/>
					</g>
					
						<line style="fill:none;stroke:#1F1927;stroke-linecap:round;stroke-linejoin:round;stroke-miterlimit:10;" x1="368.797" y1="267.332" x2="414.098" y2="267.332"/>
				</g>
				<g>
					<g>
						<path style="fill:#AAAAAA;" d="M379.613,310.401H349.29c-5.438,0-9.888-4.45-9.888-9.888l0,0c0-5.438,4.45-9.888,9.888-9.888
							h30.323c5.439,0,9.888,4.45,9.888,9.888l0,0C389.501,305.951,385.052,310.401,379.613,310.401z"/>
						<path style="fill:#833FF4;" d="M379.613,290.624h-21.829v0.01c-5.369,0.106-9.691,4.484-9.691,9.878
							c0,5.395,4.322,9.772,9.691,9.878v0.01h21.829c5.438,0,9.888-4.45,9.888-9.888v0
							C389.501,295.074,385.052,290.624,379.613,290.624z"/>
					</g>
					
						<line style="fill:none;stroke:#1F1927;stroke-linecap:round;stroke-linejoin:round;stroke-miterlimit:10;" x1="372.045" y1="310.401" x2="335.533" y2="310.401"/>
				</g>
				<g>
					<g>
						<g>
							<circle style="fill:#FFDF58;" cx="421.316" cy="394.336" r="42.823"/>
							<g>
								<linearGradient id="SVGID_1_" gradientUnits="userSpaceOnUse" x1="450.7893" y1="333.9255" x2="375.1888" y2="408.5517">
									<stop  offset="0.2636" style="stop-color:#F2F2F2"/>
									<stop  offset="0.6581" style="stop-color:#F2F2F2;stop-opacity:0"/>
								</linearGradient>
								<path style="opacity:0.5;fill:url(#SVGID_1_);" d="M425.964,351.773c-2.932,2.932-5.864,5.864-8.796,8.796
									c-4.062,4.062-8.124,8.124-12.187,12.187c-4.045,4.045-8.09,8.09-12.135,12.135c-4.063,4.063-8.126,8.126-12.189,12.189
									l-1.905,1.905c0.389,3.586,1.212,7.042,2.429,10.308c0.313-0.313,0.626-0.626,0.939-0.94c4.15-4.15,8.3-8.3,12.45-12.45
									c4.112-4.112,8.224-8.224,12.335-12.336l12.417-12.417c4.113-4.113,8.225-8.225,12.338-12.338l4.61-4.61
									C433.007,352.985,429.55,352.162,425.964,351.773z"/>
								
									<linearGradient id="SVGID_00000043436686702499267330000005877160047920931236_" gradientUnits="userSpaceOnUse" x1="479.8841" y1="372.7955" x2="394.1514" y2="455.2158">
									<stop  offset="0.2636" style="stop-color:#F2F2F2"/>
									<stop  offset="0.6581" style="stop-color:#F2F2F2;stop-opacity:0"/>
								</linearGradient>
								<path style="opacity:0.5;fill:url(#SVGID_00000043436686702499267330000005877160047920931236_);" d="M422.916,437.119
									c3.1-3.1,6.199-6.199,9.299-9.299c3.636-3.636,7.273-7.273,10.909-10.909l10.902-10.902
									c3.357-3.357,6.715-6.715,10.072-10.072c0.02-0.532,0.04-1.064,0.04-1.601c0-4.821-0.803-9.451-2.277-13.772
									c-1.967,1.967-3.934,3.934-5.901,5.901l-13.058,13.058c-4.355,4.355-8.71,8.71-13.066,13.066
									c-4.352,4.352-8.704,8.704-13.056,13.056l-9.238,9.238c4.32,1.474,8.951,2.277,13.772,2.277
									C421.852,437.159,422.384,437.138,422.916,437.119z"/>
								
									<linearGradient id="SVGID_00000062189540179378177950000012063794756534131843_" gradientUnits="userSpaceOnUse" x1="372.458" y1="443.8661" x2="450.9811" y2="363.9791">
									<stop  offset="0.2636" style="stop-color:#F2F2F2"/>
									<stop  offset="0.6581" style="stop-color:#F2F2F2;stop-opacity:0"/>
								</linearGradient>
								<path style="opacity:0.5;fill:url(#SVGID_00000062189540179378177950000012063794756534131843_);" d="M423.683,407.32
									c4.722-4.722,9.444-9.444,14.166-14.166l20.433-20.433c-3.76-6.41-9.138-11.757-15.577-15.476
									c-2.703,2.703-5.406,5.406-8.11,8.11c-4.391,4.391-8.781,8.781-13.172,13.172c-4.393,4.393-8.787,8.786-13.18,13.18
									c-4.39,4.39-8.78,8.78-13.17,13.17c-3.616,3.616-7.232,7.232-10.848,10.848c3.719,6.439,9.066,11.817,15.476,15.577
									L423.683,407.32z"/>
							</g>
						</g>
						
							<ellipse transform="matrix(0.7071 -0.7071 0.7071 0.7071 -155.4371 413.4134)" style="fill:none;stroke:#262626;stroke-width:0.75;stroke-linecap:round;stroke-linejoin:round;stroke-miterlimit:10;" cx="421.316" cy="394.336" rx="36.308" ry="36.308"/>
						
							<path style="fill:none;stroke:#262626;stroke-width:0.75;stroke-linecap:round;stroke-linejoin:round;stroke-miterlimit:10;" d="
							M464.139,394.336c0,23.651-19.173,42.823-42.823,42.823"/>
						<g>
							<g>
								<path style="fill:#FFDF58;" d="M426.991,362.906c0.488,0.459,0.732,1.191,0.732,2.196v7.721
									c2.81,0.71,5.413,2.145,7.81,4.304v-1.997c0-1.035,0.251-1.775,0.754-2.218c0.503-0.444,1.36-0.666,2.574-0.666
									c1.213,0,2.07,0.222,2.573,0.666c0.503,0.443,0.755,1.183,0.755,2.218v8.431c0,1.036-0.252,1.775-0.755,2.219
									c-0.503,0.444-1.36,0.665-2.573,0.665c-1.006,0-1.716-0.384-2.13-1.153c-1.775-3.432-4.778-5.547-9.008-6.346v10.96
									c3.756,0.415,6.759,1.036,9.008,1.864c2.366,0.858,4.208,2.101,5.525,3.727c1.316,1.628,1.975,3.772,1.975,6.435
									c0,2.604-0.644,4.889-1.931,6.855c-1.286,1.968-3.165,3.513-5.635,4.637c-2.471,1.125-5.451,1.716-8.941,1.775v7.899
									c0,1.005-0.244,1.737-0.732,2.196c-0.488,0.459-1.28,0.688-2.374,0.688c-1.095,0-1.886-0.229-2.374-0.688
									c-0.488-0.459-0.733-1.191-0.733-2.196v-8.387c-3.668-0.739-6.76-2.367-9.274-4.881v2.485c0,1.036-0.251,1.775-0.754,2.219
									c-0.503,0.444-1.361,0.666-2.573,0.666c-1.214,0-2.071-0.222-2.574-0.666c-0.503-0.444-0.754-1.183-0.754-2.219v-10.649
									c0-1.035,0.251-1.775,0.754-2.219c0.503-0.444,1.36-0.666,2.574-0.666c0.621,0,1.108,0.141,1.464,0.422
									c0.355,0.281,0.666,0.747,0.932,1.398c0.828,2.219,2.078,3.965,3.75,5.236c1.671,1.272,3.823,2.13,6.456,2.574v-12.38
									c-3.846-0.473-6.805-1.139-8.875-1.997c-2.159-0.858-3.838-2.048-5.036-3.572c-1.198-1.523-1.797-3.513-1.797-5.968
									c0-2.574,0.672-4.785,2.019-6.634c1.346-1.848,3.21-3.246,5.592-4.193c2.381-0.946,5.08-1.42,8.098-1.42v-7.144
									c0-1.005,0.244-1.737,0.733-2.196c0.488-0.458,1.279-0.688,2.374-0.688C425.711,362.218,426.503,362.447,426.991,362.906z
									 M415.098,380.3c-1.523,1.021-2.285,2.418-2.285,4.193c0,0.947,0.303,1.716,0.91,2.307c0.605,0.592,1.501,1.081,2.685,1.464
									c1.035,0.355,2.735,0.696,5.102,1.021v-10.605C418.759,378.74,416.622,379.28,415.098,380.3z M434.778,406.703
									c1.627-1.227,2.441-2.818,2.441-4.77c0-1.005-0.326-1.834-0.977-2.485c-0.651-0.65-1.583-1.183-2.796-1.598
									c-1.302-0.444-3.21-0.814-5.724-1.109v12.025C430.799,408.618,433.151,407.931,434.778,406.703z"/>
							</g>
							<g>
								
									<path style="fill:none;stroke:#262626;stroke-width:0.75;stroke-linecap:round;stroke-linejoin:round;stroke-miterlimit:10;" d="
									M421.138,396.031c-3.846-0.473-6.805-1.139-8.875-1.997c-2.159-0.858-3.838-2.048-5.036-3.572
									c-1.198-1.523-1.797-3.513-1.797-5.968c0-2.574,0.672-4.785,2.018-6.634c1.346-1.848,3.21-3.246,5.592-4.193
									c2.381-0.946,5.08-1.42,8.098-1.42v-7.144c0-1.005,0.244-1.737,0.732-2.196c0.451-0.424,1.161-0.652,2.13-0.684
									 M421.138,408.411v-12.38 M408.536,398.782c0.621,0,1.108,0.141,1.464,0.422c0.355,0.281,0.666,0.747,0.932,1.398
									c0.828,2.219,2.078,3.965,3.75,5.236c1.671,1.272,3.823,2.13,6.456,2.574 M424.244,425.983
									c-0.168,0-0.329-0.005-0.482-0.016 M427.351,389.907c3.756,0.415,6.759,1.036,9.008,1.864
									c2.366,0.858,4.208,2.101,5.524,3.727c1.316,1.628,1.975,3.772,1.975,6.435c0,2.604-0.643,4.889-1.931,6.855
									c-1.286,1.968-3.165,3.513-5.635,4.637c-2.471,1.125-5.451,1.716-8.941,1.775v7.899c0,1.005-0.244,1.737-0.732,2.196
									c-0.488,0.459-1.28,0.688-2.374,0.688 M439.261,386.411c-0.239,0.023-0.497,0.035-0.773,0.035
									c-1.006,0-1.716-0.384-2.13-1.153c-1.775-3.432-4.778-5.547-9.008-6.346"/>
							</g>
						</g>
					</g>
					<g>
						<g>
							<circle style="fill:#FFDF58;" cx="341.625" cy="325.115" r="26.368"/>
							<g>
								
									<linearGradient id="SVGID_00000062191997329088492490000017159323103578297770_" gradientUnits="userSpaceOnUse" x1="359.7733" y1="287.9172" x2="313.2227" y2="333.8679">
									<stop  offset="0.2636" style="stop-color:#F2F2F2"/>
									<stop  offset="0.6581" style="stop-color:#F2F2F2;stop-opacity:0"/>
								</linearGradient>
								<path style="opacity:0.5;fill:url(#SVGID_00000062191997329088492490000017159323103578297770_);" d="M344.487,298.907
									c-1.805,1.805-3.611,3.611-5.416,5.416c-2.501,2.501-5.003,5.003-7.504,7.504c-2.491,2.491-4.981,4.981-7.472,7.472
									c-2.502,2.502-5.003,5.003-7.505,7.505l-1.173,1.173c0.24,2.208,0.746,4.336,1.496,6.347
									c0.193-0.193,0.386-0.386,0.578-0.578c2.555-2.555,5.111-5.111,7.666-7.666c2.532-2.532,5.064-5.064,7.596-7.596
									l7.646-7.646c2.532-2.532,5.065-5.065,7.597-7.597l2.838-2.839C348.824,299.653,346.696,299.146,344.487,298.907z"/>
								
									<linearGradient id="SVGID_00000049932887997883678590000008824441605155598234_" gradientUnits="userSpaceOnUse" x1="377.6884" y1="311.8512" x2="324.8988" y2="362.6012">
									<stop  offset="0.2636" style="stop-color:#F2F2F2"/>
									<stop  offset="0.6581" style="stop-color:#F2F2F2;stop-opacity:0"/>
								</linearGradient>
								<path style="opacity:0.5;fill:url(#SVGID_00000049932887997883678590000008824441605155598234_);" d="M342.611,351.458
									c1.909-1.909,3.817-3.817,5.726-5.726c2.239-2.239,4.478-4.478,6.717-6.717l6.713-6.713
									c2.067-2.067,4.134-4.134,6.202-6.202c0.012-0.328,0.025-0.655,0.025-0.986c0-2.969-0.495-5.819-1.402-8.48
									c-1.211,1.211-2.422,2.422-3.633,3.633l-8.04,8.04c-2.682,2.682-5.363,5.363-8.045,8.045
									c-2.68,2.68-5.359,5.359-8.039,8.039l-5.688,5.688c2.66,0.907,5.511,1.402,8.48,1.402
									C341.956,351.483,342.283,351.47,342.611,351.458z"/>
								
									<linearGradient id="SVGID_00000088098896387944673790000000866861192953974670_" gradientUnits="userSpaceOnUse" x1="311.5413" y1="355.6126" x2="359.8915" y2="306.4225">
									<stop  offset="0.2636" style="stop-color:#F2F2F2"/>
									<stop  offset="0.6581" style="stop-color:#F2F2F2;stop-opacity:0"/>
								</linearGradient>
								<path style="opacity:0.5;fill:url(#SVGID_00000088098896387944673790000000866861192953974670_);" d="M343.083,333.11
									c2.908-2.908,5.815-5.815,8.722-8.723l12.582-12.582c-2.315-3.947-5.627-7.239-9.591-9.529
									c-1.664,1.664-3.329,3.329-4.993,4.993c-2.704,2.704-5.407,5.407-8.111,8.111c-2.705,2.705-5.41,5.41-8.115,8.115
									c-2.703,2.703-5.406,5.406-8.109,8.109c-2.227,2.227-4.453,4.453-6.68,6.68c2.29,3.964,5.582,7.276,9.53,9.591
									L343.083,333.11z"/>
							</g>
						</g>
						
							<circle style="fill:none;stroke:#262626;stroke-width:0.75;stroke-linecap:round;stroke-linejoin:round;stroke-miterlimit:10;" cx="341.625" cy="325.115" r="22.357"/>
						
							<path style="fill:none;stroke:#262626;stroke-width:0.75;stroke-linecap:round;stroke-linejoin:round;stroke-miterlimit:10;" d="
							M367.993,325.115c0,14.563-11.805,26.368-26.368,26.368"/>
						<g>
							<g>
								<path style="fill:#FFDF58;" d="M345.12,305.762c0.301,0.283,0.451,0.733,0.451,1.352v4.754
									c1.73,0.437,3.333,1.321,4.809,2.65v-1.23c0-0.637,0.155-1.093,0.464-1.366c0.31-0.273,0.838-0.41,1.585-0.41
									c0.747,0,1.275,0.137,1.585,0.41c0.31,0.273,0.465,0.728,0.465,1.366v5.191c0,0.638-0.155,1.093-0.465,1.366
									c-0.31,0.273-0.838,0.41-1.585,0.41c-0.619,0-1.056-0.236-1.311-0.71c-1.093-2.113-2.942-3.415-5.547-3.907v6.749
									c2.313,0.255,4.162,0.638,5.547,1.148c1.457,0.529,2.591,1.293,3.402,2.295c0.811,1.002,1.216,2.322,1.216,3.962
									c0,1.603-0.396,3.01-1.189,4.221c-0.792,1.212-1.949,2.163-3.47,2.855c-1.521,0.692-3.356,1.057-5.506,1.093v4.864
									c0,0.619-0.15,1.07-0.451,1.352c-0.301,0.282-0.788,0.424-1.462,0.424c-0.674,0-1.161-0.141-1.462-0.424
									c-0.301-0.283-0.451-0.733-0.451-1.352v-5.164c-2.258-0.455-4.162-1.457-5.711-3.006v1.53c0,0.638-0.155,1.093-0.464,1.366
									c-0.31,0.273-0.838,0.41-1.585,0.41c-0.747,0-1.275-0.137-1.585-0.41c-0.31-0.273-0.464-0.728-0.464-1.366v-6.557
									c0-0.637,0.155-1.093,0.464-1.366c0.31-0.273,0.838-0.41,1.585-0.41c0.383,0,0.682,0.087,0.901,0.26
									c0.219,0.173,0.41,0.46,0.574,0.861c0.51,1.366,1.28,2.441,2.309,3.224c1.029,0.784,2.354,1.311,3.975,1.585v-7.623
									c-2.368-0.291-4.19-0.701-5.465-1.229c-1.329-0.528-2.363-1.261-3.101-2.2c-0.738-0.938-1.107-2.163-1.107-3.675
									c0-1.585,0.414-2.946,1.243-4.085c0.829-1.138,1.976-1.999,3.443-2.582c1.466-0.583,3.128-0.874,4.986-0.874v-4.399
									c0-0.619,0.15-1.07,0.451-1.352c0.301-0.282,0.788-0.424,1.462-0.424C344.331,305.338,344.819,305.479,345.12,305.762z
									 M337.797,316.472c-0.938,0.628-1.407,1.489-1.407,2.582c0,0.583,0.186,1.057,0.56,1.421
									c0.373,0.365,0.924,0.665,1.653,0.902c0.637,0.219,1.684,0.428,3.142,0.629v-6.53
									C340.051,315.512,338.735,315.844,337.797,316.472z M349.914,332.729c1.002-0.755,1.503-1.735,1.503-2.937
									c0-0.619-0.201-1.129-0.601-1.53c-0.401-0.4-0.975-0.728-1.721-0.984c-0.802-0.273-1.977-0.501-3.524-0.683V334
									C347.465,333.909,348.913,333.485,349.914,332.729z"/>
							</g>
							<g>
								
									<path style="fill:none;stroke:#262626;stroke-width:0.75;stroke-linecap:round;stroke-linejoin:round;stroke-miterlimit:10;" d="
									M341.516,326.158c-2.368-0.291-4.19-0.701-5.465-1.229c-1.329-0.528-2.363-1.261-3.101-2.2
									c-0.738-0.938-1.107-2.163-1.107-3.675c0-1.585,0.414-2.946,1.243-4.085c0.829-1.138,1.977-1.999,3.443-2.582
									c1.466-0.583,3.128-0.874,4.986-0.874v-4.399c0-0.619,0.15-1.07,0.451-1.352c0.278-0.261,0.715-0.401,1.312-0.421
									 M341.516,333.781v-7.623 M333.756,327.852c0.382,0,0.682,0.087,0.901,0.26c0.219,0.173,0.41,0.46,0.574,0.861
									c0.51,1.366,1.28,2.441,2.309,3.224c1.029,0.784,2.354,1.311,3.975,1.585 M343.428,344.601c-0.103,0-0.202-0.003-0.297-0.01
									 M345.341,322.388c2.313,0.255,4.162,0.638,5.547,1.148c1.457,0.529,2.591,1.293,3.402,2.295
									c0.811,1.002,1.216,2.322,1.216,3.962c0,1.603-0.396,3.01-1.189,4.221c-0.792,1.212-1.949,2.163-3.47,2.855
									c-1.521,0.692-3.357,1.057-5.506,1.093v4.864c0,0.619-0.15,1.07-0.451,1.352c-0.301,0.282-0.788,0.424-1.462,0.424
									 M352.675,320.235c-0.147,0.014-0.306,0.021-0.476,0.021c-0.619,0-1.057-0.236-1.311-0.71
									c-1.093-2.113-2.942-3.415-5.547-3.907"/>
							</g>
						</g>
					</g>
					<g>
						<g>
							<circle style="fill:#FFDF58;" cx="270.776" cy="383.197" r="18.004"/>
							<g>
								
									<linearGradient id="SVGID_00000029006572308938928280000016702129266114203566_" gradientUnits="userSpaceOnUse" x1="283.1678" y1="357.7993" x2="251.3833" y2="389.1741">
									<stop  offset="0.2636" style="stop-color:#F2F2F2"/>
									<stop  offset="0.6581" style="stop-color:#F2F2F2;stop-opacity:0"/>
								</linearGradient>
								<path style="opacity:0.5;fill:url(#SVGID_00000029006572308938928280000016702129266114203566_);" d="M272.731,365.303
									c-1.233,1.233-2.465,2.465-3.698,3.698c-1.708,1.708-3.416,3.416-5.124,5.124c-1.701,1.701-3.401,3.401-5.102,5.102
									c-1.708,1.708-3.416,3.416-5.124,5.124l-0.801,0.801c0.163,1.508,0.509,2.961,1.021,4.334
									c0.132-0.132,0.263-0.263,0.395-0.395c1.745-1.745,3.49-3.49,5.234-5.234c1.729-1.729,3.457-3.457,5.186-5.186l5.22-5.221
									c1.729-1.729,3.458-3.458,5.187-5.187l1.938-1.938C275.691,365.813,274.238,365.467,272.731,365.303z"/>
								
									<linearGradient id="SVGID_00000004503683422906910160000013436902650851930014_" gradientUnits="userSpaceOnUse" x1="295.4" y1="374.1412" x2="259.3557" y2="408.7929">
									<stop  offset="0.2636" style="stop-color:#F2F2F2"/>
									<stop  offset="0.6581" style="stop-color:#F2F2F2;stop-opacity:0"/>
								</linearGradient>
								<path style="opacity:0.5;fill:url(#SVGID_00000004503683422906910160000013436902650851930014_);" d="M271.449,401.184
									c1.303-1.303,2.606-2.606,3.91-3.909c1.529-1.529,3.058-3.058,4.587-4.587l4.583-4.583c1.411-1.411,2.823-2.823,4.235-4.234
									c0.008-0.224,0.017-0.447,0.017-0.673c0-2.027-0.338-3.973-0.957-5.79c-0.827,0.827-1.654,1.654-2.481,2.481l-5.49,5.49
									c-1.831,1.831-3.662,3.662-5.493,5.493c-1.83,1.83-3.659,3.659-5.489,5.489l-3.884,3.884c1.816,0.62,3.763,0.957,5.79,0.957
									C271.002,401.201,271.226,401.193,271.449,401.184z"/>
								
									<linearGradient id="SVGID_00000024685619231309306050000013536405046617562548_" gradientUnits="userSpaceOnUse" x1="250.2353" y1="404.0211" x2="283.2484" y2="370.4346">
									<stop  offset="0.2636" style="stop-color:#F2F2F2"/>
									<stop  offset="0.6581" style="stop-color:#F2F2F2;stop-opacity:0"/>
								</linearGradient>
								<path style="opacity:0.5;fill:url(#SVGID_00000024685619231309306050000013536405046617562548_);" d="M271.771,388.656
									c1.985-1.985,3.97-3.97,5.956-5.956l8.591-8.591c-1.581-2.695-3.842-4.943-6.549-6.507c-1.137,1.137-2.273,2.273-3.41,3.409
									c-1.846,1.846-3.692,3.692-5.538,5.538c-1.847,1.847-3.694,3.694-5.541,5.541c-1.846,1.846-3.691,3.691-5.537,5.537
									c-1.52,1.52-3.041,3.041-4.561,4.561c1.564,2.707,3.812,4.968,6.507,6.549L271.771,388.656z"/>
							</g>
						</g>
						
							<circle style="fill:none;stroke:#262626;stroke-width:0.75;stroke-linecap:round;stroke-linejoin:round;stroke-miterlimit:10;" cx="270.776" cy="383.197" r="15.265"/>
						
							<path style="fill:none;stroke:#262626;stroke-width:0.75;stroke-linecap:round;stroke-linejoin:round;stroke-miterlimit:10;" d="
							M288.78,383.197c0,9.943-8.061,18.004-18.004,18.004"/>
						<g>
							<g>
								<path style="fill:#FFDF58;" d="M273.162,369.983c0.205,0.193,0.308,0.501,0.308,0.923v3.246
									c1.181,0.298,2.276,0.902,3.283,1.81v-0.84c0-0.435,0.105-0.746,0.317-0.933c0.211-0.187,0.572-0.28,1.082-0.28
									c0.51,0,0.87,0.093,1.082,0.28c0.211,0.186,0.317,0.497,0.317,0.933v3.545c0,0.436-0.106,0.746-0.317,0.933
									c-0.211,0.187-0.572,0.28-1.082,0.28c-0.423,0-0.721-0.161-0.895-0.485c-0.746-1.443-2.009-2.332-3.787-2.668v4.608
									c1.579,0.174,2.842,0.435,3.787,0.784c0.995,0.361,1.769,0.883,2.323,1.567c0.553,0.684,0.83,1.586,0.83,2.705
									c0,1.095-0.271,2.055-0.812,2.882c-0.541,0.827-1.331,1.477-2.369,1.95c-1.039,0.473-2.292,0.722-3.759,0.746v3.321
									c0,0.423-0.103,0.73-0.308,0.923c-0.205,0.193-0.538,0.289-0.998,0.289c-0.46,0-0.793-0.096-0.998-0.289
									c-0.205-0.193-0.308-0.501-0.308-0.923v-3.526c-1.542-0.311-2.842-0.995-3.899-2.052v1.045c0,0.436-0.106,0.746-0.317,0.933
									c-0.211,0.187-0.572,0.28-1.082,0.28c-0.51,0-0.871-0.093-1.082-0.28c-0.212-0.187-0.317-0.497-0.317-0.933v-4.477
									c0-0.435,0.105-0.746,0.317-0.933c0.211-0.187,0.572-0.28,1.082-0.28c0.261,0,0.466,0.059,0.615,0.177
									c0.15,0.118,0.28,0.314,0.392,0.588c0.348,0.933,0.874,1.667,1.577,2.202c0.703,0.535,1.607,0.895,2.714,1.082v-5.205
									c-1.617-0.199-2.861-0.479-3.731-0.839c-0.908-0.361-1.614-0.861-2.117-1.502c-0.504-0.641-0.755-1.477-0.755-2.509
									c0-1.082,0.283-2.012,0.849-2.789c0.566-0.777,1.35-1.365,2.351-1.763c1.001-0.398,2.136-0.597,3.404-0.597v-3.004
									c0-0.423,0.103-0.73,0.308-0.923c0.205-0.193,0.538-0.289,0.998-0.289C272.624,369.694,272.957,369.79,273.162,369.983z
									 M268.162,377.296c-0.641,0.429-0.961,1.017-0.961,1.763c0,0.398,0.127,0.721,0.383,0.97
									c0.255,0.249,0.631,0.454,1.129,0.616c0.435,0.149,1.15,0.293,2.145,0.429v-4.459
									C269.702,376.641,268.803,376.867,268.162,377.296z M276.436,388.397c0.684-0.516,1.026-1.185,1.026-2.005
									c0-0.423-0.137-0.771-0.411-1.045c-0.274-0.273-0.665-0.497-1.176-0.672c-0.547-0.187-1.349-0.342-2.406-0.466v5.056
									C274.764,389.202,275.752,388.913,276.436,388.397z"/>
							</g>
							<g>
								
									<path style="fill:none;stroke:#262626;stroke-width:0.75;stroke-linecap:round;stroke-linejoin:round;stroke-miterlimit:10;" d="
									M270.701,383.91c-1.617-0.199-2.861-0.479-3.731-0.839c-0.908-0.361-1.613-0.861-2.117-1.502
									c-0.504-0.641-0.756-1.477-0.756-2.509c0-1.082,0.283-2.012,0.849-2.789c0.566-0.777,1.349-1.365,2.351-1.763
									c1.001-0.398,2.136-0.597,3.404-0.597v-3.004c0-0.423,0.103-0.73,0.308-0.923c0.19-0.178,0.488-0.274,0.896-0.288
									 M270.701,389.115v-5.205 M265.403,385.066c0.261,0,0.466,0.059,0.616,0.177c0.15,0.118,0.28,0.314,0.392,0.588
									c0.348,0.933,0.874,1.667,1.577,2.202c0.703,0.535,1.607,0.895,2.714,1.082 M272.007,396.503
									c-0.071,0-0.138-0.002-0.203-0.007 M273.314,381.335c1.579,0.174,2.841,0.435,3.787,0.784
									c0.995,0.361,1.769,0.883,2.323,1.567c0.553,0.684,0.83,1.586,0.83,2.705c0,1.095-0.271,2.055-0.812,2.882
									c-0.541,0.827-1.331,1.477-2.369,1.95c-1.039,0.473-2.292,0.722-3.759,0.746v3.321c0,0.423-0.103,0.73-0.308,0.923
									c-0.205,0.193-0.538,0.289-0.998,0.289 M278.321,379.866c-0.101,0.01-0.209,0.014-0.325,0.014
									c-0.423,0-0.721-0.161-0.895-0.485c-0.746-1.443-2.009-2.332-3.787-2.668"/>
							</g>
						</g>
					</g>
				</g>
			</g>
		</g>
	</g>
</g>
</svg>
